<?xml version="1.0" standalone="no"?>
<!DOCTYPE svg PUBLIC "-//W3C//DTD SVG 20010904//EN"
 "http://www.w3.org/TR/2001/REC-SVG-20010904/DTD/svg10.dtd">
<svg version="1.0" xmlns="http://www.w3.org/2000/svg"
 width="554.000000pt" height="554.000000pt" viewBox="0 0 554.000000 554.000000"
 preserveAspectRatio="xMidYMid meet">

<g transform="translate(0.000000,554.000000) scale(0.100000,-0.100000)"
fill="#000000" stroke="none">
<path d="M2650 4524 c-201 -54 -330 -238 -318 -453 10 -163 99 -296 248 -369
73 -36 78 -37 190 -37 112 0 117 1 190 37 228 111 315 382 198 612 -87 170
-311 263 -508 210z"/>
<path d="M1000 2770 l0 -220 1770 0 1770 0 0 220 0 220 -1770 0 -1770 0 0
-220z"/>
<path d="M2670 1873 c-57 -12 -153 -65 -203 -112 -185 -175 -182 -478 5 -646
94 -85 201 -121 328 -112 133 9 231 60 316 164 68 83 89 148 88 278 0 102 -2
115 -30 175 -45 96 -120 173 -212 217 -69 33 -85 36 -171 39 -53 1 -107 0
-121 -3z"/>
</g>
</svg>
