<?xml version="1.0" standalone="no"?>
<!DOCTYPE svg PUBLIC "-//W3C//DTD SVG 20010904//EN"
 "http://www.w3.org/TR/2001/REC-SVG-20010904/DTD/svg10.dtd">
<svg version="1.0" xmlns="http://www.w3.org/2000/svg"
 width="576.000000pt" height="533.000000pt" viewBox="0 0 576.000000 533.000000"
 preserveAspectRatio="xMidYMid meet">

<g transform="translate(0.000000,533.000000) scale(0.100000,-0.100000)"
fill="#000000" stroke="none">
<path d="M1309 5317 c-57 -16 -132 -69 -161 -116 -55 -85 -53 -57 -56 -628
l-3 -532 -432 -3 -432 -3 -57 -28 c-107 -53 -162 -143 -163 -267 0 -59 5 -85
24 -124 32 -64 82 -113 150 -145 l56 -26 427 -3 427 -3 3 -427 c3 -422 3 -428
26 -478 60 -133 205 -205 343 -169 92 23 157 77 202 165 22 44 22 52 25 478
l3 432 443 0 c442 0 515 5 582 36 50 24 113 89 137 142 31 67 30 190 -1 249
-35 66 -78 110 -140 140 l-57 28 -482 3 -482 3 -3 532 c-3 523 -3 533 -25 579
-28 59 -92 124 -148 149 -57 25 -148 32 -206 16z"/>
<path d="M5093 4919 c-22 -4 -61 -17 -85 -29 -31 -16 -675 -654 -2241 -2218
-1834 -1834 -2202 -2206 -2222 -2249 -33 -68 -34 -176 -4 -243 26 -59 82 -115
144 -148 41 -21 64 -26 126 -26 65 -1 84 3 133 29 47 25 436 409 2253 2225
1806 1805 2200 2204 2219 2245 28 58 32 165 10 228 -47 129 -194 212 -333 186z"/>
<path d="M3070 1043 c-69 -25 -151 -113 -174 -187 -45 -142 18 -286 154 -357
l45 -24 1225 0 1225 0 50 27 c108 57 160 146 159 268 -1 91 -19 135 -81 201
-30 33 -63 55 -99 69 -54 20 -72 20 -1257 19 -1071 0 -1207 -2 -1247 -16z"/>
</g>
</svg>
